<svg version="1.1" xmlns="http://www.w3.org/2000/svg" id="bundle">

    <symbol id="avatar" viewBox="0 0 12 15" fill="none" xmlns="http://www.w3.org/2000/svg">
        <path fill-rule="evenodd" clip-rule="evenodd" d="M6.00018 8.16671C4.59352 8.16671 0.500183 8.94671 0.500183 11.3334V12C0.489012 12.6308 0.989478 13.1521 1.62018 13.1667H10.3735C10.6776 13.1614 10.9672 13.0356 11.1785 12.8168C11.3898 12.598 11.5055 12.3042 11.5002 12V11.3334C11.5002 8.94004 7.40685 8.16671 6.00018 8.16671ZM10.5 12C10.5 12.0867 10.4467 12.1667 10.3733 12.1667H1.62C1.55333 12.1667 1.5 12.0934 1.5 12V11.3334C1.5 10 4.45333 9.16671 6 9.16671C7.54667 9.16671 10.5 10.0134 10.5 11.3334V12ZM5.66668 7.16671H6.33334C7.71405 7.16671 8.83334 6.04742 8.83334 4.66671V3.33337C8.83334 1.95266 7.71405 0.833374 6.33334 0.833374H5.66668C4.28856 0.833369 3.17035 1.9486 3.16668 3.32671V4.66004C3.1649 5.32424 3.42751 5.96184 3.89655 6.43212C4.36558 6.9024 5.00248 7.16671 5.66668 7.16671V7.16671ZM4.16667 3.32671C4.17034 2.50088 4.84084 1.83337 5.66667 1.83337H6.33333C7.16176 1.83337 7.83333 2.50495 7.83333 3.33337V4.66671C7.83333 5.49513 7.16176 6.16671 6.33333 6.16671H5.66667C4.83824 6.16671 4.16667 5.49513 4.16667 4.66671V3.32671Z" fill="currentColor"/>
    </symbol>
    
    <symbol id="close" viewBox="0 0 24 24" fill="none" xmlns="http://www.w3.org/2000/svg">
        <path fill-rule="evenodd" clip-rule="evenodd" d="M17.707 1.70648L16.293 0.29248L8.99997 7.58548L1.70697 0.29248L0.292969 1.70648L7.58597 8.99948L0.292969 16.2925L1.70697 17.7065L8.99997 10.4145L16.293 17.7065L17.707 16.2925L10.414 8.99948L17.707 1.70648Z" fill="currentColor"/>
    </symbol>

    <symbol id="error" viewBox="0 0 24 24" fill="none" xmlns="http://www.w3.org/2000/svg">
        <path fill-rule="evenodd" clip-rule="evenodd" d="M2 10C2 5.589 5.589 2 10 2C14.411 2 18 5.589 18 10C18 14.411 14.411 18 10 18C5.589 18 2 14.411 2 10ZM0 10C0 15.514 4.486 20 10 20C15.514 20 20 15.514 20 10C20 4.486 15.514 0 10 0C4.486 0 0 4.486 0 10ZM13.5354 5.05011L14.9494 6.46411L11.414 9.9995L15.021 13.6065L13.6067 15.0207L10 11.4145L6.46437 14.9496L5.05011 13.5354L8.586 9.9995L5.12168 6.53518L6.53568 5.12118L10 8.5855L13.5354 5.05011Z" fill="currentColor"/>
    </symbol>

    <symbol id="magnify" viewBox="0 0 20 20" fill="none" xmlns="http://www.w3.org/2000/svg">
        <path class="cls-1" d="M13.07336,12.29053,10.14679,9.364a3.9711,3.9711,0,1,0-.78284.78284l2.92658,2.92657Zm-6.064-2.4516A2.82914,2.82914,0,1,1,9.8385,7.00934,2.83286,2.83286,0,0,1,7.00934,9.83893Z" fill="currentColor"/>
    </symbol>

    <symbol id="microphone" viewBox="0 0 24 24" fill="none" xmlns="http://www.w3.org/2000/svg">
        <path fill-rule="evenodd" clip-rule="evenodd" d="M7.00004 7C7.00004 4.23858 9.23862 2 12 2C14.7615 2 17 4.23858 17 7V11C17 13.7614 14.7615 16 12 16C9.23862 16 7.00004 13.7614 7.00004 11V7ZM12 4C10.3432 4 9.00004 5.34315 9.00004 7V11C9.00004 12.6569 10.3432 14 12 14C13.6569 14 15 12.6569 15 11V7C15 5.34315 13.6569 4 12 4ZM4.49483 14.137C4.97144 13.858 5.58401 14.0182 5.86303 14.4948C7.08977 16.5903 9.37755 18 12 18C14.6225 18 16.9103 16.5903 18.137 14.4948C18.4161 14.0182 19.0286 13.858 19.5053 14.137C19.9819 14.416 20.1421 15.0286 19.863 15.5052C18.4479 17.9225 15.9331 19.6272 13 19.946V22C13 22.5523 12.5523 23 12 23C11.4478 23 11 22.5523 11 22V19.946C8.067 19.6272 5.55218 17.9225 4.13704 15.5052C3.85802 15.0286 4.01821 14.416 4.49483 14.137Z" fill="currentColor"/>        
    </symbol>

    <symbol id="success" viewBox="0 0 24 24" fill="none" xmlns="http://www.w3.org/2000/svg">
        <path fill-rule="evenodd" clip-rule="evenodd" d="M2 10C2 5.589 5.589 2 10 2C14.411 2 18 5.589 18 10C18 14.411 14.411 18 10 18C5.589 18 2 14.411 2 10ZM0 10C0 15.514 4.486 20 10 20C15.514 20 20 15.514 20 10C20 4.486 15.514 0 10 0C4.486 0 0 4.486 0 10ZM5.1157 10.8842L9.1597 14.9272L15.0167 6.7262L12.9827 5.2742L8.8407 11.0732L6.8837 9.1162L5.1157 10.8842Z" fill="currentColor"/>
    </symbol>

    <symbol id="location" viewBox="0 0 24 24" fill="none" xmlns="http://www.w3.org/2000/svg">
        <path fill-rule="evenodd" clip-rule="evenodd" d="M7.84562 0C3.66159 0.00550894 0.271134 3.39597 0.265625 7.58C0.265625 10.43 2.18563 14.3 5.97563 19.09C6.42644 19.664 7.11573 19.9995 7.84562 20C8.57552 19.9995 9.26481 19.664 9.71562 19.09C13.5056 14.3 15.4256 10.43 15.4256 7.58C15.4201 3.39597 12.0297 0.00550894 7.84562 0ZM10.2156 8.48C9.97253 9.06559 9.50932 9.53239 8.92562 9.78C8.5836 9.92366 8.21659 9.99842 7.84562 10C7.15834 10.0026 6.49887 9.72872 6.01562 9.24C5.25252 8.47429 5.03804 7.31851 5.47563 6.33C5.7145 5.7312 6.18244 5.25248 6.77563 5C7.7641 4.55624 8.92395 4.76936 9.69011 5.53552C10.4563 6.30168 10.6694 7.46153 10.2256 8.45L10.2156 8.48Z" fill="currentColor"/>
    </symbol>

    <symbol id="contract" viewBox="0 0 24 24" fill="none" xmlns="http://www.w3.org/2000/svg">
        <path fill-rule="evenodd" clip-rule="evenodd" d="M13.3057 0.75H4.30566C2.2346 0.75 0.555664 2.42893 0.555664 4.5V17.5C0.555664 19.5711 2.2346 21.25 4.30566 21.25H13.3057C15.3767 21.25 17.0557 19.5711 17.0557 17.5V4.5C17.0557 2.42893 15.3767 0.75 13.3057 0.75ZM12.3457 10.25H5.34566C4.93145 10.25 4.59566 10.5858 4.59566 11C4.59566 11.4142 4.93145 11.75 5.34566 11.75H12.3457C12.7599 11.75 13.0957 11.4142 13.0957 11C13.0957 10.5858 12.7599 10.25 12.3457 10.25ZM5.34566 7.25H8.34566C8.75988 7.25 9.09566 6.91421 9.09566 6.5C9.09566 6.08579 8.75988 5.75 8.34566 5.75H5.34566C4.93145 5.75 4.59566 6.08579 4.59566 6.5C4.59566 6.91421 4.93145 7.25 5.34566 7.25ZM12.3457 14.25H5.34566C4.93145 14.25 4.59566 14.5858 4.59566 15C4.59566 15.4142 4.93145 15.75 5.34566 15.75H12.3457C12.7599 15.75 13.0957 15.4142 13.0957 15C13.0957 14.5858 12.7599 14.25 12.3457 14.25Z" fill="currentColor"/>
    </symbol>

    <symbol id="remote" viewBox="0 0 24 24" fill="none" xmlns="http://www.w3.org/2000/svg">
        <path fill-rule="evenodd" clip-rule="evenodd" d="M21.256 4.85005C18.5044 2.0831 14.7632 0.527344 10.861 0.527344C6.95881 0.527344 3.21762 2.0831 0.466031 4.85005C0.236107 5.24474 0.302842 5.74505 0.628176 6.06567C0.953511 6.38629 1.45475 6.44571 1.84603 6.21005C4.22404 3.80632 7.46478 2.45374 10.846 2.45374C14.2273 2.45374 17.468 3.80632 19.846 6.21005C20.2354 6.60218 20.8689 6.60441 21.261 6.21505C21.6532 5.82569 21.6554 5.19218 21.266 4.80005L21.256 4.85005ZM10.846 6.00005C8.40984 5.98238 6.0644 6.92342 4.31603 8.62005C4.0372 8.87081 3.9221 9.2565 4.0179 9.61906C4.1137 9.98162 4.4043 10.2601 4.77061 10.3404C5.13691 10.4207 5.51736 10.2893 5.75603 10.0001C7.12903 8.65796 8.98178 7.92076 10.9015 7.9527C12.8212 7.98463 14.6484 8.78304 15.976 10.1701C16.2147 10.4593 16.5951 10.5907 16.9615 10.5104C17.3278 10.4301 17.6184 10.1516 17.7142 9.78906C17.81 9.4265 17.6949 9.04081 17.416 8.79005C15.6954 7.00704 13.3239 5.99998 10.846 6.00005ZM8.20603 12.5201C8.90531 11.819 9.85583 11.4265 10.846 11.4301C11.8586 11.4382 12.8236 11.8611 13.516 12.6001C13.8972 12.9889 13.8972 13.6112 13.516 14.0001L11.906 15.5901C11.3364 16.1571 10.4156 16.1571 9.84603 15.5901L8.20603 13.9301C7.81831 13.54 7.81831 12.9101 8.20603 12.5201Z" fill="currentColor"/>
    </symbol>

    <symbol id="workday" viewBox="0 0 24 24" fill="none" xmlns="http://www.w3.org/2000/svg">
        <path fill-rule="evenodd" clip-rule="evenodd" d="M2.5 12a9.5 9.5 0 1 1 19 0 9.5 9.5 0 0 1-19 0zM12 .5C5.649.5.5 5.649.5 12S5.649 23.5 12 23.5 23.5 18.351 23.5 12 18.351.5 12 .5zM11 7a1 1 0 1 1 2 0v5h4a1 1 0 1 1 0 2h-5a1 1 0 0 1-1-1V7z" fill="currentColor"/>   
    </symbol>

    <symbol id="currency" viewBox="0 0 24 24" fill="none" xmlns="http://www.w3.org/2000/svg">
        <path d="m 11.040048,11.22585 c -0.0352,-0.17759 -0.209866,-0.29122 -0.386357,-0.25096 -0.286393,0.0653 -0.7345179,0.14499 -1.2167679,0.14499 -1.5204375,0 -2.730241,-0.93187 -3.2534196,-2.28881 l 3.0452411,0 A 0.32142857,0.32142857 0 0 0 9.5423517,8.58012 L 9.7130571,7.82047 C 9.7582181,7.61953 9.6054053,7.42857 9.3994499,7.42857 l -3.5956339,0 C 5.771405,7.04479 5.765941,6.67088 5.807486,6.29701 l 3.9265983,0 A 0.32142857,0.32142857 0 0 0 10.048093,6.04431 L 10.222522,5.2473 C 10.266392,5.04684 10.113745,4.85714 9.9085128,4.85714 l -3.703875,0 c 0.5526697,-1.20511 1.6791965,-2.00973 3.150509,-2.00973 0.3880178,0 0.7651072,0.0603 1.0138662,0.11103 0.1665,0.034 0.330723,-0.0669 0.375053,-0.23098 L 11.065254,1.53904 C 11.114054,1.35847 10.999224,1.17432 10.81545,1.13947 10.491236,1.078 9.9687267,1 9.4042178,1 6.8010749,1 4.7005124,2.61389 3.9249321,4.85714 l -0.8859375,0 c -0.177509,0 -0.3214286,0.14392 -0.3214286,0.32143 l 0,0.79701 c 0,0.17751 0.1439196,0.32143 0.3214286,0.32143 l 0.577741,0 c -0.027027,0.36447 -0.031634,0.78447 -0.00485,1.13156 l -0.5728928,0 C 2.8614836,7.42857 2.717564,7.57249 2.717564,7.75 l 0,0.75964 c 0,0.17751 0.1439196,0.32143 0.3214286,0.32143 l 0.806625,0 C 4.5159321,11.25068 6.608566,13 9.4042178,13 c 0.7044912,0 1.3007682,-0.12171 1.6366342,-0.20861 0.165187,-0.0427 0.26858,-0.20646 0.235393,-0.37385 l -0.236197,-1.19169" fill="currentColor" />
    </symbol>

    <symbol id="chevron-left" viewBox="0 0 24 24" fill="none" xmlns="http://www.w3.org/2000/svg">
      <path stroke="#000000" stroke-linecap="round" stroke-linejoin="round" stroke-width="2" d="M13 4l-6 6 6 6"/>
    </symbol>

    <symbol id="github" viewBox="0 0 100 100" fill="none" xmlns="http://www.w3.org/2000/svg">
    <path fill-rule="evenodd" clip-rule="evenodd" d="M48.854 0C21.839 0 0 22 0 49.217c0 21.756 13.993 40.172 33.405 46.69 2.427.49 3.316-1.059 3.316-2.362 0-1.141-.08-5.052-.08-9.127-13.59 2.934-16.42-5.867-16.42-5.867-2.184-5.704-5.42-7.17-5.42-7.17-4.448-3.015.324-3.015.324-3.015 4.934.326 7.523 5.052 7.523 5.052 4.367 7.496 11.404 5.378 14.235 4.074.404-3.178 1.699-5.378 3.074-6.6-10.839-1.141-22.243-5.378-22.243-24.283 0-5.378 1.94-9.778 5.014-13.2-.485-1.222-2.184-6.275.486-13.038 0 0 4.125-1.304 13.426 5.052a46.97 46.97 0 0 1 12.214-1.63c4.125 0 8.33.571 12.213 1.63 9.302-6.356 13.427-5.052 13.427-5.052 2.67 6.763.97 11.816.485 13.038 3.155 3.422 5.015 7.822 5.015 13.2 0 18.905-11.404 23.06-22.324 24.283 1.78 1.548 3.316 4.481 3.316 9.126 0 6.6-.08 11.897-.08 13.526 0 1.304.89 2.853 3.316 2.364 19.412-6.52 33.405-24.935 33.405-46.691C97.707 22 75.788 0 48.854 0z" fill="currentColor"/>
    </symbol>


</svg>